<?xml version="1.0" encoding="UTF-8" standalone="no"?>
<!DOCTYPE svg PUBLIC "-//W3C//DTD SVG 20010904//EN"
              "http://www.w3.org/TR/2001/REC-SVG-20010904/DTD/svg10.dtd">

<svg xmlns="http://www.w3.org/2000/svg"
     width="0.366667in" height="0.8in"
     viewBox="0 0 110 240">
  <path id="Selection"
        fill="none" stroke="white" stroke-width="2"
        d="M 0.00,0.00
           C 0.00,0.00 110.00,0.00 110.00,0.00
             110.00,0.00 110.00,240.00 110.00,240.00
             110.00,240.00 0.00,240.00 0.00,240.00
             0.00,240.00 0.00,0.00 0.00,0.00 Z
           M 109.00,1.00
           C 109.00,1.00 1.00,1.00 1.00,1.00
             1.00,1.00 1.00,56.00 1.00,56.00
             1.00,56.00 109.00,56.00 109.00,56.00
             109.00,56.00 109.00,1.00 109.00,1.00 Z
           M 55.00,57.00
           C 55.00,57.00 1.00,57.00 1.00,57.00
             1.00,57.00 1.00,120.00 1.00,120.00
             1.00,120.00 55.00,120.00 55.00,120.00
             55.00,120.00 55.00,57.00 55.00,57.00 Z
           M 109.00,57.00
           C 109.00,57.00 56.00,57.00 56.00,57.00
             56.00,57.00 56.00,120.00 56.00,120.00
             56.00,120.00 109.00,120.00 109.00,120.00
             109.00,120.00 109.00,57.00 109.00,57.00 Z
           M 55.00,121.00
           C 55.00,121.00 1.00,121.00 1.00,121.00
             1.00,121.00 1.00,184.00 1.00,184.00
             1.00,184.00 55.00,184.00 55.00,184.00
             55.00,184.00 55.00,121.00 55.00,121.00 Z
           M 109.00,121.00
           C 109.00,121.00 56.00,121.00 56.00,121.00
             56.00,121.00 56.00,184.00 56.00,184.00
             56.00,184.00 109.00,184.00 109.00,184.00
             109.00,184.00 109.00,121.00 109.00,121.00 Z
           M 109.00,185.00
           C 109.00,185.00 1.00,185.00 1.00,185.00
             1.00,185.00 1.00,239.00 1.00,239.00
             1.00,239.00 109.00,239.00 109.00,239.00
             109.00,239.00 109.00,185.00 109.00,185.00 Z" />
</svg>
